<svg width="118" height="95" viewBox="0 0 118 95" fill="none" xmlns="http://www.w3.org/2000/svg">
<path d="M83.1429 0H13.8571C10.1832 0.00401176 6.66094 1.46525 4.06309 4.06309C1.46524 6.66094 0.00401176 10.1832 0 13.8571V69.2857C0.00401176 72.9596 1.46524 76.4819 4.06309 79.0798C6.66094 81.6776 10.1832 83.1388 13.8571 83.1429H83.1429C86.8168 83.1388 90.3391 81.6776 92.9369 79.0798C95.5348 76.4819 96.996 72.9596 97 69.2857V13.8571C96.996 10.1832 95.5348 6.66094 92.9369 4.06309C90.3391 1.46525 86.8168 0.00401176 83.1429 0ZM65.8214 13.8571C67.8769 13.8571 69.8863 14.4667 71.5954 15.6087C73.3045 16.7506 74.6366 18.3738 75.4232 20.2728C76.2098 22.1719 76.4156 24.2615 76.0146 26.2775C75.6136 28.2936 74.6238 30.1454 73.1703 31.5989C71.7168 33.0523 69.865 34.0422 67.849 34.4432C65.833 34.8442 63.7433 34.6384 61.8443 33.8517C59.9452 33.0651 58.3221 31.7331 57.1801 30.024C56.0381 28.3149 55.4286 26.3055 55.4286 24.25C55.4314 21.4945 56.5273 18.8527 58.4757 16.9043C60.4241 14.9559 63.0659 13.86 65.8214 13.8571ZM13.8571 76.2143C12.0196 76.2143 10.2573 75.4843 8.9579 74.185C7.65854 72.8856 6.92857 71.1233 6.92857 69.2857V54.6426L27.4631 36.3902C29.4444 34.633 32.021 33.6974 34.6681 33.7738C37.3151 33.8502 39.8335 34.933 41.71 36.8015L55.7728 50.8341L30.3926 76.2143H13.8571ZM90.0714 69.2857C90.0714 71.1233 89.3415 72.8856 88.0421 74.185C86.7427 75.4843 84.9804 76.2143 83.1429 76.2143H40.1922L66.4818 49.9247C68.3431 48.3418 70.7052 47.4697 73.1485 47.4634C75.5919 47.4571 77.9585 48.3168 79.828 49.89L90.0714 58.4252V69.2857Z" fill="#8F8E8E"/>
<circle cx="91.1146" cy="68.1146" r="26.1146" fill="black"/>
<path d="M80.959 74.3259V76.9555C80.959 77.6529 81.236 78.3218 81.7292 78.8149C82.2223 79.3081 82.8912 79.5851 83.5886 79.5851H99.3662C100.064 79.5851 100.732 79.3081 101.226 78.8149C101.719 78.3218 101.996 77.6529 101.996 76.9555V74.3259M84.9034 63.8075L91.4774 57.2335M91.4774 57.2335L98.0514 63.8075M91.4774 57.2335V73.0111" stroke="white" stroke-width="2.6296" stroke-linecap="round" stroke-linejoin="round"/>
</svg>
